<?xml version="1.0" encoding="UTF-8" standalone="no"?>
<svg
        xmlns:dc="http://purl.org/dc/elements/1.1/"
        xmlns:cc="http://creativecommons.org/ns#"
        xmlns:rdf="http://www.w3.org/1999/02/22-rdf-syntax-ns#"
        xmlns:svg="http://www.w3.org/2000/svg"
        xmlns:sodipodi="http://sodipodi.sourceforge.net/DTD/sodipodi-0.dtd"
        xmlns:inkscape="http://www.inkscape.org/namespaces/inkscape"
        xmlns="http://www.w3.org/2000/svg"
        clip-rule="evenodd"
        fill-rule="evenodd"
        image-rendering="optimizeQuality"
        shape-rendering="geometricPrecision"
        text-rendering="geometricPrecision"
        viewBox="0 0 500 500"
        version="1.1"
        id="svg3767"
        sodipodi:docname="if_compass_173186.svg"
        inkscape:version="0.92.2 (5c3e80d, 2017-08-06)">
    <metadata
            id="metadata3771">
        <rdf:RDF>
            <cc:Work
                    rdf:about="">
                <dc:format>image/svg+xml</dc:format>
                <dc:type
                        rdf:resource="http://purl.org/dc/dcmitype/StillImage"/>
            </cc:Work>
        </rdf:RDF>
    </metadata>
    <sodipodi:namedview
            pagecolor="#ffffff"
            bordercolor="#666666"
            borderopacity="1"
            objecttolerance="10"
            gridtolerance="10"
            guidetolerance="10"
            inkscape:pageopacity="0"
            inkscape:pageshadow="2"
            inkscape:window-width="1920"
            inkscape:window-height="1017"
            id="namedview3769"
            showgrid="false"
            inkscape:zoom="1.1992531"
            inkscape:cx="219.74852"
            inkscape:cy="266.80546"
            inkscape:window-x="1912"
            inkscape:window-y="-8"
            inkscape:window-maximized="1"
            inkscape:current-layer="svg3767"/>
    <defs
            id="defs3743">
        <radialGradient
                cx="250"
                cy="250"
                fx="250"
                fy="250"
                gradientUnits="userSpaceOnUse"
                id="a"
                r="207">
            <stop
                    offset="0"
                    stop-color="#fff"
                    id="stop3736"/>
            <stop
                    offset=".588"
                    stop-color="#f5f5f5"
                    id="stop3738"/>
            <stop
                    offset="1"
                    stop-color="#979798"
                    id="stop3740"/>
        </radialGradient>
    </defs>
    <circle
            cx="250"
            cy="250"
            fill="#008BFF"
            r="225"
            stroke="#434242"
            stroke-width="10"
            id="circle3745"/>
    <circle
            cx="250"
            cy="250"
            r="185"
            id="circle3747"
            style="fill:#ffffff;fill-opacity:1;stroke-width:10;stroke-miterlimit:4;stroke-dasharray:none"
            stroke-width="10"
            stroke="#434242"
            fill="url(#a)"/>
    <path
            d="M430 250h-15m-330 0h-15m180-180v15m0 330v15m174-133l-15-4m-318-86l-15-4m221-127l-4 15m-86 318l-4 15m203-84l-13-7m-286-166l-13-7m246-66l-8 13m-165 286l-7 13m217-29l-10-10m-234-234l-10-10m254 0l-10 10m-234 234l-10 10m217 29l-8-13m-165-286l-7-13m246 66l-13 8m-286 165l-13 7m203 84l-4-15m-86-318l-4-15m221 127l-15 4m-318 86l-15 4"
            fill="none"
            stroke="#434242"
            stroke-linecap="round"
            stroke-width="7.5"
            id="path3751"
            style="stroke-width:3;stroke-miterlimit:4;stroke-dasharray:none"/>
</svg>
